<?xml version="1.0" encoding="utf-8"?>
<!-- Generator: Adobe Illustrator 22.1.0, SVG Export Plug-In . SVG Version: 6.00 Build 0)  -->
<svg version="1.1" id="Layer_1" xmlns="http://www.w3.org/2000/svg" xmlns:xlink="http://www.w3.org/1999/xlink" x="0px" y="0px"
	 viewBox="0 0 512 512" style="enable-background:new 0 0 512 512;" xml:space="preserve">
<style type="text/css">
	.st0{fill:#E8236F;}
	.st1{fill:#D31C67;}
	.st2{fill:#FFDA2D;}
	.st3{display:none;}
	.st4{display:inline;fill:#CECECE;}
	.st5{fill:#FFFFFF;}
	.st6{fill:#FDBF00;}
	.st7{fill:#FF9100;}
	.st8{display:inline;fill:#703081;}
	.st9{display:inline;}
</style>
<path class="st0" d="M197,169.6c-5.1,0-10.5,0-15.9,0.6h-0.9C81.8,179.5,1,272.9,1,377c0,120.9,112.3,135,196,135
	c83.1,0,180-12.6,193.5-111.9C404.6,283.7,312.2,169.6,197,169.6z"/>
<path class="st1" d="M390.5,400.1C377,499.4,280.1,512,197,512V169.6C312.2,169.6,404.6,283.7,390.5,400.1z"/>
<path class="st0" d="M301.1,49.8l-30,91H122.9l-30-91c-1.8-4.5-0.9-9.6,1.8-13.5c3-3.9,7.5-6.3,12.3-6.3h47.7
	c6-17.4,22.8-30,42.3-30s36,12.6,42.3,30H287c4.8,0,9.3,2.4,12.3,6.3C302,40.2,302.9,45.3,301.1,49.8z"/>
<path class="st1" d="M301.1,49.8l-30,91H197V0c19.5,0,36,12.6,42.3,30H287c4.8,0,9.3,2.4,12.3,6.3C302,40.2,302.9,45.3,301.1,49.8z"
	/>
<path class="st2" d="M291.4,158.5c0,12.4-10.1,22.5-22.5,22.5H124.2c-12.4,0-22.5-10.1-22.5-22.5c0-12.4,10.1-22.5,22.5-22.5h144.6
	C281.2,135.9,291.4,146.1,291.4,158.5z"/>
<g>
	<g class="st3">
		<path class="st4" d="M504.2,418.4c0,20.1-16.4,36.5-36.5,36.5h-42.8l-96.3-4c-13.2-2.2-31.5-12.4-31.5-32.5s16.4-36.5,36.5-36.5
			h134.1C487.8,381.9,504.2,398.4,504.2,418.4z"/>
		<path class="st4" d="M504.2,346.2c0,20.1-16.4,36.5-36.5,36.5h-42.8h-91.3c-20.1,0-36.5-16.4-36.5-36.5
			c0-20.1,16.4-36.5,36.5-36.5h134.1C487.8,309.7,504.2,326.1,504.2,346.2z"/>
		<path class="st4" d="M504.2,273.9c0,20.1-16.4,36.5-36.5,36.5h-42.8h-91.3c-20.1,0-36.5-16.4-36.5-36.5s16.4-36.5,36.5-36.5h134.1
			C487.8,237.4,504.2,253.8,504.2,273.9z"/>
	</g>
	<g>
		<path class="st5" d="M503.8,434.1c0,23.2-19,42.2-42.2,42.2h-49.4H306.8c-23.2,0-42.2-19-42.2-42.2c0-23.2,19-42.2,42.2-42.2
			h154.8C484.8,392,503.8,410.9,503.8,434.1z"/>
		<path class="st5" d="M503.8,350.7c0,23.2-19,42.2-42.2,42.2h-49.4H306.8c-23.2,0-42.2-19-42.2-42.2c0-23.2,19-42.2,42.2-42.2
			h154.8C484.8,308.5,503.8,327.5,503.8,350.7z"/>
		<path class="st5" d="M503.8,267.2c0,23.2-19,42.2-42.2,42.2h-49.4H306.8c-23.2,0-42.2-19-42.2-42.2c0-23.2,19-42.2,42.2-42.2
			h154.8C484.8,225.1,503.8,244.1,503.8,267.2z"/>
	</g>
	<path class="st2" d="M479.9,348.1c0,14.5-11.8,26.3-26.3,26.3h-66.6h-65.7c-14.5,0-26.3-11.8-26.3-26.3s11.8-26.3,26.3-26.3h132.3
		C468.1,321.8,479.9,333.6,479.9,348.1z"/>
	<path class="st6" d="M479.9,348.1c0,14.5-11.8,26.3-26.3,26.3h-66.6v-52.6h66.6C468.1,321.8,479.9,333.6,479.9,348.1z"/>
	<path class="st6" d="M479.9,430c0,14.5-11.8,26.3-26.3,26.3H321.4c-14.5,0-26.3-11.8-26.3-26.3s11.8-26.3,26.3-26.3h132.3
		C468.1,403.7,479.9,415.5,479.9,430z"/>
	<path class="st7" d="M479.9,430c0,14.5-11.8,26.3-26.3,26.3h-66.6v-52.6h66.6C468.1,403.7,479.9,415.5,479.9,430z"/>
	<path class="st2" d="M479.9,267.7c0,14.5-11.8,26.3-26.3,26.3h-66.6h-65.7c-14.5,0-26.3-11.8-26.3-26.3c0-14.5,11.8-26.3,26.3-26.3
		h132.3C468.1,241.4,479.9,253.3,479.9,267.7z"/>
	<path class="st6" d="M479.9,267.7c0,14.5-11.8,26.3-26.3,26.3h-66.6v-52.6h66.6C468.1,241.4,479.9,253.3,479.9,267.7z"/>
	<path class="st5" d="M170.3,335.7h-30.7c-12.7,0-23-10-23-22.4s10.3-22.4,23-22.4H201v-29.9h-30.7V231h-30.7v29.9
		c-29.7,0-53.7,23.4-53.7,52.4s24,52.4,53.7,52.4h30.7c12.7,0,23,10,23,22.4s-10.3,22.4-23,22.4H93.6v29.9h46v23.8h30.7v-23.8
		c29.7,0,53.7-23.4,53.7-52.4S200,335.7,170.3,335.7z"/>
</g>
<g class="st3">
	<path class="st8" d="M483.4,210.3H230.7c-11.2,0-20.3,6.3-20.3,14.1v248.9c0,7.8,9.1,14.1,20.3,14.1h252.8
		c11.2,0,20.3-6.3,20.3-14.1V224.3C503.7,216.6,494.6,210.3,483.4,210.3z"/>
	<path class="st5" d="M279.5,227.4h174.7v47.2H279.5V227.4z"/>
	<g class="st9">
		<path class="st5" d="M303,235h-33.3v33.3h-33.3v33.3h33.3v33.3H303v-33.3h33.3v-33.3H303V235z"/>
		<path class="st5" d="M309.9,380.6l-23.5,23.5l-23.5-23.5l-23.5,23.5l23.5,23.5l-23.5,23.5l23.5,23.5l23.5-23.5l23.5,23.5
			l23.5-23.5l-23.5-23.5l23.5-23.5L309.9,380.6z"/>
		<path class="st5" d="M391.3,269.3h99.9v33.3h-99.9V269.3z"/>
		<path class="st5" d="M391.3,384.8h99.9v33.3h-99.9V384.8z"/>
		<path class="st5" d="M391.3,439.2h99.9v33.3h-99.9V439.2z"/>
	</g>
	<path class="st7" d="M332.9,245.5h13.6v13.6h-13.6V245.5z"/>
	<path class="st7" d="M360.2,245.5h13.6v13.6h-13.6V245.5z"/>
	<path class="st7" d="M305.7,245.5h13.6v13.6h-13.6V245.5z"/>
	<path class="st8" d="M134.3,335.7h-30.7c-12.7,0-23-10-23-22.4s10.3-22.4,23-22.4H165v-29.9h-30.7V231h-30.7v29.9
		c-29.7,0-53.7,23.4-53.7,52.4s24,52.4,53.7,52.4h30.7c12.7,0,23,10,23,22.4s-10.3,22.4-23,22.4H57.6v29.9h46v23.8h30.7v-23.8
		c29.7,0,53.7-23.4,53.7-52.4S164,335.7,134.3,335.7z"/>
	<path class="st5" d="M138.8,328.9h-22.5c-9.3,0-16.9-7.4-16.9-16.5s7.6-16.5,16.9-16.5h45.1v-22h-22.5v-22h-22.5v22
		c-21.8,0-39.5,17.2-39.5,38.5c0,21.2,17.7,38.5,39.5,38.5h22.5c9.3,0,16.9,7.4,16.9,16.5s-7.6,16.5-16.9,16.5H82.4v22h33.8v17.5
		h22.5v-17.5c21.8,0,39.5-17.2,39.5-38.5C178.3,346.2,160.6,328.9,138.8,328.9z"/>
</g>
</svg>
