<?xml version="1.0" encoding="utf-8"?>
<!-- Generator: Adobe Illustrator 22.1.0, SVG Export Plug-In . SVG Version: 6.00 Build 0)  -->
<svg version="1.1" id="Layer_1" xmlns="http://www.w3.org/2000/svg" xmlns:xlink="http://www.w3.org/1999/xlink" x="0px" y="0px"
	 viewBox="0 0 512 512" style="enable-background:new 0 0 512 512;" xml:space="preserve">
<style type="text/css">
	.st0{fill:#E8236F;}
	.st1{fill:#703081;}
</style>
<path class="st0" d="M234.8,279v47.5H103.2c-29.3,0-55,23.6-55,50.5v9.4H31.4c-16.6,0-30,13.5-30,30V469c0,16.6,13.5,30,30,30H84
	c16.6,0,30-13.5,30-30v-52.6c0-16.6-13.5-30-30-30H67.1V377c0-18.1,19.1-31.7,36.2-31.7h140.4v41.1h-16.9c-16.6,0-30,13.5-30,30V469
	c0,16.6,13.5,30,30,30h52.6c16.6,0,30-13.5,30-30v-52.6c0-16.6-13.5-30-30-30h-16.9v-41.1h145.4c17.1,0,36.2,13.6,36.2,31.7v9.4
	h-16.9c-16.6,0-30,13.5-30,30V469c0,16.6,13.5,30,30,30h52.6c16.6,0,30-13.5,30-30v-52.6c0-16.6-13.5-30-30-30h-16.9V377
	c0-26.9-25.7-50.5-55-50.5H271.3V279"/>
<path class="st1" d="M367.4,177.6c-14.6-6.2-21.5-23.1-15.3-37.9c3-7,8.7-12.6,15.8-15.4l26-10.5l-14.4-35.6l-26.1,10.6
	c-14.8,6-31.5-1.2-37.5-15.9c-2.8-7.1-2.8-15,0.1-22.1l11-25.9l-35.4-15l-11,25.9c-6.2,14.6-23.1,21.5-37.9,15.3
	c-7-3-12.6-8.7-15.4-15.8L216.7,9.1l-35.6,14.4l10.6,26.1c6,14.8-1.2,31.5-15.9,37.5c-7.1,2.8-15,2.8-22.1-0.1l-25.9-11l-15,35.4
	l25.9,11c14.6,6.2,21.5,23.1,15.3,37.9c-3,7-8.7,12.6-15.8,15.4l-26.1,10.6l14.4,35.6l26.1-10.6c14.8-6,31.5,1.2,37.5,15.9
	c2.8,7.1,2.8,15-0.1,22.1l-11,25.9l35.4,15l11-25.9c6.2-14.6,23.1-21.5,37.9-15.3c7,3,12.6,8.7,15.4,15.8l10.6,26.1l35.6-14.4
	l-10.6-26.2c-6-14.8,1.2-31.5,15.9-37.5c7.1-2.8,15-2.8,22.1,0.1l25.9,11l15-35.4L367.4,177.6z M238.2,205.7
	c-30.8-8.2-49.1-39.8-40.9-70.5s39.8-49.1,70.5-40.9s49.1,39.8,40.9,70.5S269,213.8,238.2,205.7z"/>
</svg>
