<?xml version="1.0" encoding="utf-8"?>
<!-- Generator: Adobe Illustrator 22.1.0, SVG Export Plug-In . SVG Version: 6.00 Build 0)  -->
<svg version="1.1" id="Layer_1" xmlns="http://www.w3.org/2000/svg" xmlns:xlink="http://www.w3.org/1999/xlink" x="0px" y="0px"
	 viewBox="0 0 512 512" style="enable-background:new 0 0 512 512;" xml:space="preserve">
<style type="text/css">
	.st0{display:none;}
	.st1{display:inline;fill:#E8236F;}
	.st2{display:inline;fill:#D31C67;}
	.st3{display:inline;fill:#FFDA2D;}
	.st4{fill:#703081;}
	.st5{fill:#FFFFFF;}
	.st6{display:none;fill:#FF9100;}
	.st7{fill:#E8236F;}
	.st8{fill:#D31C67;}
	.st9{fill:#FFDA2D;}
	.st10{display:inline;fill:#CECECE;}
	.st11{display:inline;}
	.st12{display:inline;fill:#FDBF00;}
	.st13{display:inline;fill:#FF9100;}
	.st14{display:inline;fill:#FFFFFF;}
</style>
<g class="st0">
	<path class="st1" d="M197,169.6c-5.1,0-10.5,0-15.9,0.6h-0.9C81.8,179.5,1,272.9,1,377c0,120.9,112.3,135,196,135
		c83.1,0,180-12.6,193.5-111.9C404.6,283.7,312.2,169.6,197,169.6z"/>
	<path class="st2" d="M390.5,400.1C377,499.4,280.1,512,197,512V169.6C312.2,169.6,404.6,283.7,390.5,400.1z"/>
	<path class="st1" d="M301.1,49.8l-30,91H122.9l-30-91c-1.8-4.5-0.9-9.6,1.8-13.5c3-3.9,7.5-6.3,12.3-6.3h47.7
		c6-17.4,22.8-30,42.3-30s36,12.6,42.3,30H287c4.8,0,9.3,2.4,12.3,6.3C302,40.2,302.9,45.3,301.1,49.8z"/>
	<path class="st2" d="M301.1,49.8l-30,91H197V0c19.5,0,36,12.6,42.3,30H287c4.8,0,9.3,2.4,12.3,6.3C302,40.2,302.9,45.3,301.1,49.8z
		"/>
	<path class="st3" d="M291.4,158.5c0,12.4-10.1,22.5-22.5,22.5H124.2c-12.4,0-22.5-10.1-22.5-22.5s10.1-22.5,22.5-22.5h144.6
		C281.2,135.9,291.4,146.1,291.4,158.5z"/>
</g>
<g>
	<path class="st4" d="M313.6,35.3H23.3C10.5,35.3,0,45.2,0,57.4v390.7c0,12.2,10.5,22.1,23.3,22.1h290.4c12.9,0,23.3-9.9,23.3-22.1
		V57.3C336.9,45.2,326.4,35.3,313.6,35.3z"/>
	<path class="st5" d="M39.1,64.4H305v90.9H39.1V64.4z"/>
	<g>
		<path class="st5" d="M95.1,191.3H65.5v29.5H36v29.5h29.5v29.5h29.5v-29.5h29.5v-29.5H95.1V191.3z"/>
		<path class="st5" d="M101.2,341.4l-20.8,20.8l-20.8-20.8l-20.8,20.8l20.8,20.8l-20.8,20.8l20.8,20.8l20.8-20.8l20.8,20.8
			l20.8-20.8l-20.8-20.8l20.8-20.8L101.2,341.4z"/>
		<path class="st5" d="M183.8,221.7h88.6v29.5h-88.6V221.7z"/>
		<path class="st5" d="M183.8,345.1h88.6v29.5h-88.6V345.1z"/>
		<path class="st5" d="M183.8,393.4h88.6v29.5h-88.6V393.4z"/>
	</g>
	<path class="st6" d="M122.5,70.5h13.6v13.6h-13.6V70.5z"/>
	<path class="st6" d="M149.8,70.5h13.6v13.6h-13.6V70.5z"/>
	<path class="st6" d="M95.3,70.5h13.6v13.6H95.3V70.5z"/>
</g>
<g>
	<path class="st7" d="M380.1,249.3c-3.4,0-6.9,0-10.5,0.4H369c-65,6.1-118.4,67.9-118.4,136.7c0,79.9,74.2,89.2,129.5,89.2
		c54.9,0,118.9-8.3,127.9-73.9C517.3,324.7,456.2,249.3,380.1,249.3z"/>
	<path class="st8" d="M508,401.7c-8.9,65.6-73,73.9-127.9,73.9V249.3C456.2,249.3,517.3,324.7,508,401.7z"/>
	<path class="st7" d="M448.9,170.2l-19.8,60.1h-97.9l-19.8-60.1c-1.2-3-0.6-6.3,1.2-8.9c2-2.6,5-4.2,8.1-4.2h31.5
		c4-11.5,15.1-19.8,28-19.8s23.8,8.3,28,19.8h31.5c3.2,0,6.1,1.6,8.1,4.2C449.5,163.8,450.1,167.2,448.9,170.2z"/>
	<path class="st8" d="M448.9,170.2l-19.8,60.1h-49v-93c12.9,0,23.8,8.3,28,19.8h31.5c3.2,0,6.1,1.6,8.1,4.2
		C449.5,163.8,450.1,167.2,448.9,170.2z"/>
	<path class="st9" d="M442.5,242c0,8.2-6.7,14.9-14.9,14.9H332c-8.2,0-14.9-6.7-14.9-14.9c0-8.2,6.7-14.9,14.9-14.9h95.6
		C435.7,227.1,442.5,233.8,442.5,242z"/>
</g>
<g class="st0">
	<g>
		<path class="st10" d="M504.2,418.4c0,20.1-16.4,36.5-36.5,36.5h-42.8l-96.3-4c-13.2-2.2-31.5-12.4-31.5-32.5s16.4-36.5,36.5-36.5
			h134.1C487.8,381.9,504.2,398.4,504.2,418.4z"/>
		<path class="st10" d="M504.2,346.2c0,20.1-16.4,36.5-36.5,36.5h-42.8h-91.3c-20.1,0-36.5-16.4-36.5-36.5s16.4-36.5,36.5-36.5
			h134.1C487.8,309.7,504.2,326.1,504.2,346.2z"/>
		<path class="st10" d="M504.2,273.9c0,20.1-16.4,36.5-36.5,36.5h-42.8h-91.3c-20.1,0-36.5-16.4-36.5-36.5s16.4-36.5,36.5-36.5
			h134.1C487.8,237.4,504.2,253.8,504.2,273.9z"/>
	</g>
	<g class="st11">
		<path class="st5" d="M503.8,434.1c0,23.2-19,42.2-42.2,42.2h-49.4H306.8c-23.2,0-42.2-19-42.2-42.2s19-42.2,42.2-42.2h154.8
			C484.8,392,503.8,410.9,503.8,434.1z"/>
		<path class="st5" d="M503.8,350.7c0,23.2-19,42.2-42.2,42.2h-49.4H306.8c-23.2,0-42.2-19-42.2-42.2s19-42.2,42.2-42.2h154.8
			C484.8,308.5,503.8,327.5,503.8,350.7z"/>
		<path class="st5" d="M503.8,267.2c0,23.2-19,42.2-42.2,42.2h-49.4H306.8c-23.2,0-42.2-19-42.2-42.2s19-42.2,42.2-42.2h154.8
			C484.8,225.1,503.8,244.1,503.8,267.2z"/>
	</g>
	<path class="st3" d="M479.9,348.1c0,14.5-11.8,26.3-26.3,26.3H387h-65.7c-14.5,0-26.3-11.8-26.3-26.3s11.8-26.3,26.3-26.3h132.3
		C468.1,321.8,479.9,333.6,479.9,348.1z"/>
	<path class="st12" d="M479.9,348.1c0,14.5-11.8,26.3-26.3,26.3H387v-52.6h66.6C468.1,321.8,479.9,333.6,479.9,348.1z"/>
	<path class="st12" d="M479.9,430c0,14.5-11.8,26.3-26.3,26.3H321.4c-14.5,0-26.3-11.8-26.3-26.3s11.8-26.3,26.3-26.3h132.3
		C468.1,403.7,479.9,415.5,479.9,430z"/>
	<path class="st13" d="M479.9,430c0,14.5-11.8,26.3-26.3,26.3H387v-52.6h66.6C468.1,403.7,479.9,415.5,479.9,430z"/>
	<path class="st3" d="M479.9,267.7c0,14.5-11.8,26.3-26.3,26.3H387h-65.7c-14.5,0-26.3-11.8-26.3-26.3s11.8-26.3,26.3-26.3h132.3
		C468.1,241.4,479.9,253.3,479.9,267.7z"/>
	<path class="st12" d="M479.9,267.7c0,14.5-11.8,26.3-26.3,26.3H387v-52.6h66.6C468.1,241.4,479.9,253.3,479.9,267.7z"/>
	<path class="st14" d="M170.3,335.7h-30.7c-12.7,0-23-10-23-22.4s10.3-22.4,23-22.4H201V261h-30.7v-30h-30.7v29.9
		c-29.7,0-53.7,23.4-53.7,52.4s24,52.4,53.7,52.4h30.7c12.7,0,23,10,23,22.4s-10.3,22.4-23,22.4H93.6v29.9h46v23.8h30.7v-23.8
		C200,440.4,224,417,224,388S200,335.7,170.3,335.7z"/>
</g>
<path class="st5" d="M386.9,359.4h-17.6c-7.3,0-13.2-5.7-13.2-12.8c0-7.1,5.9-12.8,13.2-12.8h35.2v-17.1h-17.6v-17.2h-17.6v17.1
	c-17,0-30.8,13.4-30.8,30s13.8,30,30.8,30h17.6c7.3,0,13.2,5.7,13.2,12.8c0,7.1-5.9,12.8-13.2,12.8h-44v17.1h26.4v13.6h17.6v-13.6
	c17,0,30.8-13.4,30.8-30S404,359.4,386.9,359.4z"/>
<path class="st7" d="M86,105.6h-8.5c-3.5,0-6.4-2.8-6.4-6.2c0-3.4,2.9-6.2,6.4-6.2h17.1v-8.3H86v-8.3h-8.5v8.3
	c-8.2,0-14.9,6.5-14.9,14.6s6.7,14.6,14.9,14.6H86c3.5,0,6.4,2.8,6.4,6.2c0,3.4-2.9,6.2-6.4,6.2H64.7v8.3h12.8v6.6H86v-6.6
	c8.2,0,14.9-6.5,14.9-14.6S94.3,105.6,86,105.6z"/>
<path class="st7" d="M152,105.6h-8.5c-3.5,0-6.4-2.8-6.4-6.2c0-3.4,2.9-6.2,6.4-6.2h17.1v-8.3H152v-8.3h-8.5v8.3
	c-8.2,0-14.9,6.5-14.9,14.6s6.7,14.6,14.9,14.6h8.5c3.5,0,6.4,2.8,6.4,6.2c0,3.4-2.9,6.2-6.4,6.2h-21.3v8.3h12.8v6.6h8.5v-6.6
	c8.2,0,14.9-6.5,14.9-14.6S160.3,105.6,152,105.6z"/>
</svg>
