<?xml version="1.0" encoding="utf-8"?>
<!-- Generator: Adobe Illustrator 22.1.0, SVG Export Plug-In . SVG Version: 6.00 Build 0)  -->
<svg version="1.1" id="Layer_1" xmlns="http://www.w3.org/2000/svg" xmlns:xlink="http://www.w3.org/1999/xlink" x="0px" y="0px"
	 viewBox="0 0 481.7 481.7" style="enable-background:new 0 0 481.7 481.7;" xml:space="preserve">
<style type="text/css">
	.st0{stroke:#703081;stroke-width:10;stroke-miterlimit:10;}
	.st1{fill:#E8236F;}
</style>
<path class="st0" d="M369.3,157.4c2.1-9.4-0.2-17.2-6.3-24.7c-2.4-2.9-5.2-5.4-8.3-7.3v-16.9c0-18.8-15.2-34-34-34h-5.2
	c-2.7,0-5-1.8-5.7-4.4l-4.9-18.7c-1.8-6.9-8-11.7-15.2-11.7h-31.3v-5.3c0-14.7-11.9-26.7-26.7-26.7h-155c-10.9,0-20.9,6.8-24.8,16.9
	c-0.9,2.4,0,5.3,2.3,6.3c2.6,1.2,5.5-0.1,6.4-2.8c2.3-6.7,8.9-11,16-11c39.2,0,119.8,0,155,0c9.5,0,17.2,7.7,17.2,17.2v86.4H59.4
	V49.2c0-2.5-1.8-4.7-4.3-4.9c-2.8-0.3-5.2,1.9-5.2,4.7v26c-7.7,1.3-14.7,5.1-20,11.1c-5.6,6.3-8.4,14.6-8.4,23v16.3
	c-3.1,1.9-6,4.3-8.3,7.3l0,0c-6.1,7.5-8.3,17.2-6.3,26.7l29.9,137c2.2,10,7.7,19,15.7,25.3c7.9,6.4,17.9,9.9,28.1,9.9h164.9
	c2.5,0,4.7-1.8,4.9-4.3c0.3-2.8-1.9-5.2-4.7-5.2H80.6c-16.5,0-31-11.7-34.5-27.8l-29.9-137c-1.5-6.9,0.3-14,5-19.4
	c4.3-5,10.7-7.6,17.3-7.6h299.2c6.6,0,13,2.7,17.3,7.6c4.7,5.4,6.5,12.5,5,19.4 M258.3,120.9V49.3h31.3c2.8,0,5.3,1.9,6,4.6
	l4.9,18.7c1.8,6.8,7.9,11.5,14.9,11.5h5.2c13.5,0,24.5,11,24.5,24.5v13.1c-2.2-0.5-4.5-0.8-6.9-0.8L258.3,120.9L258.3,120.9z
	 M31,121.7v-13.1c0-11.7,8-21.4,18.9-23.9V121h-12C35.6,120.9,33.3,121.2,31,121.7L31,121.7z M191,48.9c2.6,0,4.7-2.1,4.7-4.7
	c0-2.6-2.1-4.7-4.7-4.7h-73.8c-2.6,0-4.7,2.1-4.7,4.7c0,2.6,2.1,4.7,4.7,4.7H191z M177.6,98.9c0-2.6-2.1-4.7-4.7-4.7h-85
	c-2.6,0-4.7,2.1-4.7,4.7s2.1,4.7,4.7,4.7h85C175.5,103.7,177.6,101.5,177.6,98.9z M83.1,75.8c0,2.6,2.1,4.7,4.7,4.7h20.9
	c2.6,0,4.7-2.1,4.7-4.7s-2.1-4.7-4.7-4.7H87.8C85.2,71.1,83.1,73.2,83.1,75.8z M188.9,94.2c-2.6,0-4.7,2.1-4.7,4.7s2.1,4.7,4.7,4.7
	h31.5c2.6,0,4.7-2.1,4.7-4.7s-2.1-4.7-4.7-4.7H188.9z M124.9,80.6h95.6c2.6,0,4.7-2.1,4.7-4.7s-2.1-4.7-4.7-4.7h-95.6
	c-2.6,0-4.7,2.1-4.7,4.7S122.2,80.6,124.9,80.6z"/>
<path class="st1" d="M456.3,250.7H274.1c-5.4,0-10.5,2.3-14.2,6.2c-3.6,4-5.4,9.3-5,14.7l16.7,187.9c0.9,9.9,9.2,17.5,19.1,17.5
	h148.9c9.9,0,18.2-7.6,19.1-17.5l16.7-187.9c0.5-5.4-1.3-10.7-5-14.7C466.8,253,461.7,250.7,456.3,250.7z M316.4,426.9
	c-0.3,0-0.6,0-0.9,0c-6.3,0-11.6-4.8-12-11.2L297,330c-0.5-6.7,4.5-12.5,11.2-13c0.3,0,0.6,0,0.9,0c6.3,0,11.6,4.8,12,11.2l6.5,85.7
	C328,420.5,323,426.4,316.4,426.9z M377.1,420.3c0,6.7-5.4,12.1-12.1,12.1s-12.1-5.4-12.1-12.1V307.4c0-6.7,5.4-12.1,12.1-12.1
	s12.1,5.4,12.1,12.1V420.3z M427,415.7c-0.5,6.4-5.8,11.2-12.1,11.2c-0.3,0-0.6,0-0.9,0c-6.7-0.5-11.6-6.3-11.1-13l6.5-85.7
	c0.5-6.3,5.8-11.2,12-11.2c0.3,0,0.6,0,1,0c6.7,0.5,11.6,6.3,11.1,13L427,415.7z"/>
<path class="st1" d="M461.1,184.3h-35.6c-1.9-8.6-9.6-15.1-18.7-15.1h-83c-9.2,0-16.8,6.5-18.7,15.1h-35.6
	c-11.4,0-20.7,9.3-20.7,20.7s9.2,20.7,20.7,20.7h191.7c11.4,0,20.6-9.3,20.6-20.7C481.7,193.5,472.5,184.3,461.1,184.3z"/>
</svg>
