<?xml version="1.0" encoding="utf-8"?>
<!-- Generator: Adobe Illustrator 22.1.0, SVG Export Plug-In . SVG Version: 6.00 Build 0)  -->
<svg version="1.1" id="Capa_1" xmlns="http://www.w3.org/2000/svg" xmlns:xlink="http://www.w3.org/1999/xlink" x="0px" y="0px"
	 viewBox="0 0 466 466" style="enable-background:new 0 0 466 466;" xml:space="preserve">
<style type="text/css">
	.st0{fill:#703081;}
	.st1{fill:#E8236F;}
</style>
<path class="st0" d="M437.3,154.6c-13.1-1.9-22.2-14-20.4-27.2c0.9-6.3,4.3-12,9.4-15.8l18.7-14L425.8,72l-18.7,14.1
	c-10.6,8-25.6,5.8-33.6-4.8c-3.8-5.1-5.5-11.5-4.6-17.8l3.3-23.2l-31.7-4.5L337.2,59c-1.9,13.1-14,22.2-27.2,20.4
	c-6.3-0.9-12-4.3-15.8-9.4l-14.1-18.8l-25.6,19.2l14.1,18.7c8,10.6,5.8,25.6-4.8,33.6c-5.1,3.8-11.5,5.5-17.8,4.6l-23.2-3.3
	l-4.5,31.7l23.2,3.3c13.1,1.9,22.2,14,20.4,27.2c-0.9,6.3-4.3,12-9.4,15.8l-18.7,14.1l19.2,25.6l18.7-14.1c10.6-8,25.6-5.8,33.6,4.8
	c3.8,5.1,5.5,11.5,4.6,17.8l-3.3,23.2l31.7,4.5l3.3-23.2c1.9-13.1,14-22.2,27.2-20.4c6.3,0.9,12,4.3,15.8,9.4l14.1,18.7l25.6-19.2
	l-14.1-18.8c-8-10.6-5.8-25.6,4.8-33.6c5.1-3.8,11.5-5.5,17.8-4.6l23.2,3.3l4.5-31.7L437.3,154.6z M339.4,204.8
	c-26.5,0-48-21.5-48-48s21.5-48,48-48s48,21.5,48,48S365.9,204.8,339.4,204.8z"/>
<path class="st0" d="M198.3,278c-11.3-1.6-19.1-12-17.5-23.4c0.8-5.4,3.7-10.3,8.1-13.6l16.1-12l-16.5-22l-16.1,12.1
	c-9.1,6.9-22,5-28.9-4.1c-3.3-4.4-4.7-9.9-4-15.3l2.8-20l-27.3-3.9l-2.8,20c-1.6,11.3-12,19.1-23.4,17.5c-5.4-0.8-10.3-3.7-13.6-8.1
	L63.1,189l-22,16.5l12.1,16.1c6.9,9.1,5,22-4.1,28.9c-4.4,3.3-9.9,4.7-15.3,4l-20-2.8L10,279l20,2.8c11.3,1.6,19.1,12,17.5,23.4
	c-0.8,5.4-3.7,10.3-8.1,13.6l-16.1,12.1l16.5,22l16.1-12.1c9.1-6.9,22-5,28.9,4.1c3.3,4.4,4.7,9.9,4,15.3l-2.8,20l27.3,3.9l2.8-20
	c1.6-11.3,12-19.1,23.4-17.5c5.4,0.8,10.3,3.7,13.6,8.1l12.1,16.1l22-16.5L175,338c-6.9-9.1-5-22,4.1-28.9c4.4-3.3,9.9-4.7,15.3-4
	l20,2.8l3.9-27.3L198.3,278z M114.1,321.2c-22.8,0-41.3-18.5-41.3-41.3s18.5-41.3,41.3-41.3s41.3,18.5,41.3,41.3
	S136.9,321.2,114.1,321.2z"/>
<path class="st1" d="M339.5,366.5c-7-2.5-10.7-10.2-8.3-17.3c1.2-3.4,3.7-6.2,6.9-7.7l11.9-5.7l-7.8-16.3l-11.9,5.7
	c-6.7,3.3-14.8,0.4-18.1-6.4c-1.5-3.2-1.8-7-0.6-10.4l4.4-12.5l-17-6l-4.4,12.5c-2.5,7-10.2,10.7-17.3,8.3c-3.4-1.2-6.2-3.7-7.7-6.9
	L264,292l-16.3,7.8l5.7,11.9c3.3,6.7,0.4,14.8-6.4,18.1c-3.2,1.5-7,1.8-10.4,0.6l-12.5-4.4l-6,17l12.5,4.4c7,2.5,10.7,10.2,8.3,17.3
	c-1.2,3.4-3.7,6.2-6.9,7.7l-11.9,5.7l7.8,16.3l11.9-5.7c6.7-3.3,14.8-0.4,18.1,6.4c1.5,3.2,1.8,7,0.6,10.4l-4.4,12.5l17,6l4.4-12.5
	c2.5-7,10.2-10.7,17.3-8.3c3.4,1.2,6.2,3.7,7.7,6.9l5.7,11.9l16.3-7.8l-5.7-11.9c-3.3-6.7-0.4-14.8,6.4-18.1c3.2-1.5,7-1.8,10.4-0.6
	l12.5,4.4l6-17L339.5,366.5z M279.9,383.5c-14.7-2.9-24.2-17.2-21.3-31.8c2.9-14.7,17.2-24.2,31.8-21.3s24.2,17.2,21.3,31.8
	S294.5,386.4,279.9,383.5z"/>
<path class="st1" d="M198,116.3c-5.5-2-8.4-8-6.5-13.5c0.9-2.7,2.9-4.8,5.4-6l9.3-4.5l-6.1-12.7l-9.3,4.5c-5.3,2.6-11.6,0.3-14.1-5
	c-1.2-2.5-1.4-5.5-0.5-8.1l3.4-9.8l-13.3-4.7l-3.4,9.8c-2,5.5-8,8.4-13.5,6.5c-2.7-0.9-4.8-2.9-6-5.4l-4.5-9.4l-12.7,6.1l4.5,9.3
	c2.6,5.3,0.3,11.6-5,14.1c-2.5,1.2-5.5,1.4-8.1,0.5l-9.8-3.4l-4.7,13.3l9.8,3.4c5.5,2,8.4,8,6.5,13.5c-0.9,2.7-2.9,4.8-5.4,6
	l-9.3,4.5l6.1,12.7l9.3-4.5c5.3-2.6,11.6-0.3,14.1,5c1.2,2.5,1.4,5.5,0.5,8.1l-3.4,9.8l13.3,4.7l3.4-9.8c2-5.5,8-8.4,13.5-6.5
	c2.7,0.9,4.8,2.9,6,5.4l4.5,9.3l12.7-6.1l-4.5-9.4c-2.6-5.3-0.3-11.6,5-14.1c2.5-1.2,5.5-1.4,8.1-0.5l9.8,3.4l4.7-13.3L198,116.3z
	 M151.3,129.6c-11.5-2.3-18.9-13.4-16.6-24.9c2.3-11.5,13.4-18.9,24.9-16.6s18.9,13.4,16.6,24.9
	C173.9,124.4,162.8,131.9,151.3,129.6z"/>
</svg>
